<?xml version="1.0" encoding="utf-8"?>
<!-- Generator: Adobe Illustrator 18.1.1, SVG Export Plug-In . SVG Version: 6.00 Build 0)  -->
<svg version="1.1" id="Layer_1" xmlns="http://www.w3.org/2000/svg" xmlns:xlink="http://www.w3.org/1999/xlink" x="0px" y="0px"
	 viewBox="0 0 450.7 200" enable-background="new 0 0 450.7 200" xml:space="preserve">
<rect fill="#189F66" width="450.7" height="200"/>
<g>
	<path fill="#FFFFFF" d="M87.2,70.1c-6.6,0-13.8,3.9-21.2,11.5c-0.6-2.7-1.2-5.1-1.9-7.2c5.4-4.2,8.4-10,8.4-16.1
		c0-3.3-1.9-12-6.1-12c-2,0-3.5,1.6-3.5,3.7c0,0.5,0,1.3,0.6,1.9c1.3,2,1.9,4.1,1.9,6.4c0,3.4-1.5,6.8-4,9.3
		C56.8,59,49.8,54.1,41.9,54.1c-7.3,0-12.9,4.8-12.9,11.1c0,8.1,8.5,14,20.2,14c3,0,6.3-0.8,8.4-1.4c0.9,2.9,1.7,5.9,2.2,10.5
		c-9.9,11.6-17.9,30.1-17.9,41.4c0,6.1,3.8,10.4,9.2,10.4c11.6,0,16.8-19.9,16.8-38.4c0-4-0.2-7.9-0.6-11.4c7-8.6,14-13.4,19.7-13.4
		c8.5,0,9.7,11,9.7,17.5c0,11.8-4.8,26.9-12.6,39.6c-0.3,0.6-0.4,1.2-0.4,1.8c0,2,1.6,3.7,3.5,3.7c1.1,0,2.4-0.7,3-1.7
		c8.6-13.9,13.7-30.1,13.7-43.3C104,73.2,93.5,70.1,87.2,70.1z M51.5,133.2c-1.8,0-2.3-2.2-2.3-3.5c0.1-7.3,4.5-20.8,11.7-31.3
		c0,1.1,0.1,2.3,0.1,3.3C60.9,121.2,55.4,133.2,51.5,133.2z M49.3,72.5c-7.1,0-12.9-3.3-12.9-7.3c0-2.9,1.9-4.4,5.6-4.4
		c5.1,0,9.9,3.8,13.5,10.6C53.7,72.1,51.4,72.5,49.3,72.5z"/>
	<path fill="#FFFFFF" d="M136.5,112.2c0.7-3.6,1.4-7.7,1.5-8.8c0.2-1.1-0.1-2.2-0.8-3c-0.6-0.7-1.3-1-2.1-1c-2.2,0-3.6,1.1-4,3.1
		c-2.4,17-8.5,29.8-14.2,29.8c-3.1,0-3.3-6.8-3.3-8.9c0-4.9,0.8-11,2.5-18.5l0-0.8c0-2-1.7-3.7-3.7-3.7c-2.8,0-3.4,2.6-3.6,3.6
		l-0.1,0.3c-0.8,4.1-2.3,11.9-2.3,18.9c0,14.3,7.3,15.9,10.4,15.9c4.2,0,8.3-2.9,11.3-7.7c0.5,2.6,1.5,4.8,2.9,6.1
		c2.7,2.7,6.3,0.7,6.3-2.2c0-0.9-0.3-1.7-0.9-2.4c-1.2-1.3-1.8-3.4-1.8-6.6c0-3.4,0.8-8,1.6-13.3L136.5,112.2z"/>
	<path fill="#FFFFFF" d="M161.8,99.7l-2.2-0.1c-1.1,0-2.1-0.1-2.9-0.1c0.7-2.9,1.8-7.1,2.6-9.5c0.2-0.4,0.3-1.7,0.3-2.2
		c0-1.9-1.6-3.8-3.8-3.8c0,0,0,0,0,0c-1.5,2-2.7,1.6-3.2,3.1c-1.1,4-2.3,8.7-3.1,12.1c-4,0.1-8.6,0.6-8.6,4.5c0,2,1.4,3.1,2.7,3.1
		c0.7,0,1.3-0.1,2-0.2c0.6-0.1,1.3-0.2,2.2-0.3c-1.6,6.7-2.3,12.5-2.3,18c0,8.9,2.9,13.7,9,14.7l0.3,0c0.2,0,0.5,0,0.6,0h0l0,0.1
		c1.9-0.2,3.4-1.7,3.4-3.6c0-1.9-1.5-3.5-3.1-3.4c-0.8-0.2-3.2-1.2-3.2-8.6c0-5.3,0.9-10.4,2.6-18.4h0c2.1,0,5,0.9,6.8,0.9
		c1.9,0,3.2-1.1,3.2-3C165.3,101,163.6,100,161.8,99.7z"/>
	<path fill="#FFFFFF" d="M189.5,99.1c-4.1,0-9.5,2-12.8,7.2c-0.5-1.7-1.3-3.2-2.4-4.3c-1-1-2.1-1.6-3.1-1.6c-1.9,0-3.4,1.6-3.4,3.5
		c0,0.4,0,1.8,1,2.6c1,1,2,2.4,2,7.1c0,2.3-1.4,11.4-2.3,16.9c-0.6,3.7-0.7,4.6-0.7,4.9c0,2,1.4,3.5,3.3,3.5c1.8,0,3.2-1.2,3.5-3
		l0.8-4.3c2.4-13.5,4.5-25.1,14.5-25.7c2-0.2,3.3-1.5,3.3-3.3C193.3,100.6,191.6,99.1,189.5,99.1z"/>
	<path fill="#FFFFFF" d="M239.3,95.3c-10.6-3.8-15-6.3-15-11.6c0-5.3,5.2-10.6,15.3-10.6c0.5,0,1.2,0.1,2,0.2
		c-0.9,1.9-1.4,4.1-1.4,6.3c0,6.1,4.4,10.9,10,10.9c5.2,0,8.4-4.6,8.4-8.8c0-2.5-0.4-6.3-4.3-10c-0.2-0.2-0.4-0.4-0.7-0.6
		c1.4-0.6,2.9-0.9,4.4-0.9c2.1,0,3.8-1.3,3.8-3.1c0-2-1.6-3.5-3.7-3.5c-4.4,0-8.4,1.3-11.7,3.9c-2.3-0.6-4.5-0.9-6.7-0.9
		c-14.8,0-22.6,8.7-22.6,17.2c0,11.3,10.1,14.8,20,18.1c12.5,4.2,18.9,8,18.9,17c0,3.9-2,7.6-5.3,10c-1.3-13-11.8-22.2-25.7-22.2
		c-10.7,0-19.1,6.8-19.1,15.5c0,10.4,11.1,18,26.3,18c2.3,0,4.4-0.1,6.3-0.3c1-0.1,2.1-0.3,3.2-0.5c-1.6,3.2-4,5.7-6.8,6.9
		c-1.4,0.6-2.2,1.9-2.2,3.3c0,1.9,1.6,3.3,3.7,3.3c2.8,0,10.9-5.6,13.5-16c8.3-3.6,13-10.2,13-18.1C263,103.7,249.8,99,239.3,95.3z
		 M251.4,81.6c0,0.7-0.3,2-1.3,2c-1.4,0-2.9-1.7-2.9-4.2c0-1.5,0.3-2.9,0.9-4.2C251.4,77.8,251.4,80.7,251.4,81.6z M224.9,113.4
		c5.9,0,10.8,1.9,14.2,5.5c3.1,3.3,4.8,7.9,4.7,13.1c-3.2,0.9-7.1,1.4-11.6,1.4c-10.8,0-19.2-4.9-19.2-11.2
		C212.9,117.3,218.1,113.4,224.9,113.4z"/>
	<path fill="#FFFFFF" d="M286.1,98.6c-12.6,0-20.7,16.5-20.7,27.8c0,9.2,5.3,12.4,9.9,12.4c8.5,0,12.3-7.8,12.3-10.2
		c0-2-1.5-3.5-3.4-3.5c-1.4,0-2.7,0.9-3.2,2.2c-0.8,2.3-2.6,4.7-5,4.7c-2.4,0-3.4-2.8-3.4-5.5c0-9.5,5.8-21,13-21
		c1.3,0,4.4,0.6,4.4,5.9c0,3.3-0.6,7-1.2,10.5l-0.2,1.2c-0.2,1.2-0.3,2.4-0.5,3.4c-0.4,2.3-0.7,4.2-0.7,5.9c0,3.9,1.6,6.3,4.2,6.3
		c1.9,0,3.7-1.6,3.7-3.4c0-0.7-0.3-1.2-0.5-1.7c-0.1-0.2-0.2-0.5-0.2-1c0-1.7,0.4-4.5,0.8-6.9l0.2-1.4c0.9-5.1,1.4-9.5,1.4-13.1
		C297.2,103.3,293.1,98.6,286.1,98.6z"/>
	<path fill="#FFFFFF" d="M330.3,112.2c0.7-3.6,1.4-7.7,1.5-8.8c0.2-1.1-0.1-2.2-0.8-3c-0.6-0.7-1.3-1-2.1-1c-2.2,0-3.6,1.1-4,3.1
		c-2.4,17-8.5,29.8-14.2,29.8c-3.1,0-3.3-6.8-3.3-8.9c0-4.9,0.8-10.9,2.5-18.5l0-0.8c0-2-1.7-3.7-3.7-3.7c-2.8,0-3.4,2.6-3.6,3.6
		l-0.1,0.3c-0.8,3.9-2.3,11.9-2.3,19c0,14.3,7.3,15.9,10.4,15.9c4.2,0,8.3-2.9,11.3-7.7c0.5,2.6,1.5,4.8,2.9,6.1
		c2.7,2.7,6.3,0.7,6.3-2.2c0-0.9-0.3-1.7-0.9-2.4c-1.2-1.3-1.8-3.4-1.8-6.6c0-3.5,0.8-8.1,1.7-13.4L330.3,112.2z"/>
	<path fill="#FFFFFF" d="M356.1,99.1c-4.1,0-9.5,2-12.8,7.2c-0.5-1.7-1.3-3.2-2.4-4.3c-1-1-2.1-1.6-3.1-1.6c-1.9,0-3.4,1.6-3.4,3.5
		c0,0.4,0,1.8,1,2.6c1,1,2,2.4,2,7.1c0,2.3-1.4,11.4-2.3,16.9c-0.6,3.7-0.7,4.6-0.7,4.9c0,2,1.4,3.5,3.3,3.5c1.8,0,3.2-1.2,3.5-3
		l0.8-4.3c2.4-13.5,4.5-25.1,14.5-25.7c2-0.2,3.3-1.5,3.3-3.3C359.8,100.6,358.2,99.1,356.1,99.1z"/>
	<path fill="#FFFFFF" d="M389.2,112.2c0.7-3.6,1.4-7.7,1.5-8.8c0.2-1.1-0.1-2.2-0.8-3c-0.6-0.7-1.3-1-2.1-1c-2.2,0-3.6,1.1-4,3.1
		c-2.4,17-8.5,29.8-14.2,29.8c-3.1,0-3.3-6.8-3.3-8.9c0-4.9,0.8-10.9,2.5-18.5l0-0.8c0-2-1.7-3.7-3.7-3.7c-2.8,0-3.4,2.6-3.6,3.6
		l-0.1,0.3c-0.8,3.9-2.3,11.9-2.3,19c0,14.3,7.3,15.9,10.4,15.9c4.2,0,8.3-2.9,11.3-7.7c0.5,2.6,1.5,4.8,2.9,6.1
		c2.7,2.7,6.3,0.7,6.3-2.2c0-0.9-0.3-1.7-0.9-2.4c-1.2-1.3-1.8-3.4-1.8-6.6c0-3.5,0.8-8.1,1.7-13.4L389.2,112.2z"/>
	<path fill="#FFFFFF" d="M408.8,114.1c-4.4-2.6-4.7-3.6-4.7-4.9c0-2.3,1.6-3.7,4.2-3.7c2.2,0,3.3,2,3.4,2.5c0.4,1.5,2,2.3,3.1,2.3
		c2,0,3.7-1.6,3.7-3.7c0-2.6-3-7.6-10.1-7.6c-7.4,0-11.4,5.2-11.4,10.2c0,6.6,6.1,9.9,8.4,11.1c3.6,1.9,5.5,4.3,5.5,7.1
		c0,4.6-4.2,5.9-6.7,5.9c-3.2,0-5.8-2.1-5.8-3.9c0-1.9,0.9-1.9,1.4-1.9c0.3,0,0.5,0,0.8,0.1c0.2,0.1,0.5,0.1,0.7,0.2
		c0.1,0,0.3,0,0.4,0c1.5,0,3.1-1.1,3.1-3.2c0-2.5-1.9-4-5-4c-4.8,0-8.6,3.9-8.6,8.9c0,6.3,6.5,10.1,12.9,10.1c8.4,0,14-5.1,14-12.7
		C418.1,120.9,414.4,117.4,408.8,114.1z"/>
	<g>
		<path fill="#FFFFFF" d="M209,88.4l-4.3,3l6.5,4.2l-7.9-1.3l-3,5.9l0.1-6.2l-5.3-0.4l5.2-3l-0.5-4.9l3.2,3.5L209,88.4z"/>
	</g>
	<g>
		<path fill="#FFFFFF" d="M421.1,90l-3.6,1.5l4,4.1l-5.5-2.2l-3.1,3.8l1.1-4.5l-3.8-1.2l4.3-1.3l0.4-3.6l1.7,3.1L421.1,90z"/>
	</g>
	<g>
		<path fill="#FFFFFF" d="M405.5,81.7l-4.5,2.7l6.2,4.6l-7.8-1.8l-3.4,5.7l0.5-6.2l-5.3-0.8l5.4-2.6l-0.2-4.9l3,3.7L405.5,81.7z"/>
	</g>
	<g>
		<path fill="#FFFFFF" d="M419,79.8l-4-0.6l1.5,5.8l-3.8-4.9l-4.8,1.8l3.4-3.5l-2.8-3.1l4.6,1.1l2.3-3.1l-0.1,3.7L419,79.8z"/>
	</g>
	<path fill="#FFFFFF" d="M202.3,100.2c-2-0.5-4,0.8-4.3,2.6c-3.2,12.8-4.9,31.5-4.9,33c0,2,1.6,3.7,3.7,3.7c1.9,0,3.4-1.4,3.5-3.4
		c0.6-9.9,2.6-23.7,4.5-31.5c0.2-0.4,0.2-0.8,0.2-0.9C205,102.1,203.9,100.7,202.3,100.2z"/>
</g>
</svg>
